<svg id="visual" viewBox="0 0 900 600" width="900" height="600" xmlns="http://www.w3.org/2000/svg" xmlns:xlink="http://www.w3.org/1999/xlink" version="1.1"><path d="M0 103L30 97C60 91 120 79 180 93C240 107 300 147 360 159C420 171 480 155 540 158C600 161 660 183 720 171C780 159 840 113 870 90L900 67L900 0L870 0C840 0 780 0 720 0C660 0 600 0 540 0C480 0 420 0 360 0C300 0 240 0 180 0C120 0 60 0 30 0L0 0Z" fill="#dbe9ff"></path><path d="M0 175L30 169C60 163 120 151 180 165C240 179 300 219 360 225C420 231 480 203 540 204C600 205 660 235 720 229C780 223 840 181 870 160L900 139L900 65L870 88C840 111 780 157 720 169C660 181 600 159 540 156C480 153 420 169 360 157C300 145 240 105 180 91C120 77 60 89 30 95L0 101Z" fill="#d3e4ff"></path><path d="M0 229L30 225C60 221 120 213 180 228C240 243 300 281 360 295C420 309 480 299 540 313C600 327 660 365 720 363C780 361 840 319 870 298L900 277L900 137L870 158C840 179 780 221 720 227C660 233 600 203 540 202C480 201 420 229 360 223C300 217 240 177 180 163C120 149 60 161 30 167L0 173Z" fill="#cbdeff"></path><path d="M0 283L30 288C60 293 120 303 180 317C240 331 300 349 360 364C420 379 480 391 540 403C600 415 660 427 720 413C780 399 840 359 870 339L900 319L900 275L870 296C840 317 780 359 720 361C660 363 600 325 540 311C480 297 420 307 360 293C300 279 240 241 180 226C120 211 60 219 30 223L0 227Z" fill="#c3d9ff"></path><path d="M0 457L30 464C60 471 120 485 180 487C240 489 300 479 360 480C420 481 480 493 540 496C600 499 660 493 720 486C780 479 840 471 870 467L900 463L900 317L870 337C840 357 780 397 720 411C660 425 600 413 540 401C480 389 420 377 360 362C300 347 240 329 180 315C120 301 60 291 30 286L0 281Z" fill="#bbd3ff"></path><path d="M0 523L30 526C60 529 120 535 180 535C240 535 300 529 360 531C420 533 480 543 540 539C600 535 660 517 720 512C780 507 840 515 870 519L900 523L900 461L870 465C840 469 780 477 720 484C660 491 600 497 540 494C480 491 420 479 360 478C300 477 240 487 180 485C120 483 60 469 30 462L0 455Z" fill="#b4ceff"></path><path d="M0 559L30 563C60 567 120 575 180 580C240 585 300 587 360 584C420 581 480 573 540 566C600 559 660 553 720 557C780 561 840 575 870 582L900 589L900 521L870 517C840 513 780 505 720 510C660 515 600 533 540 537C480 541 420 531 360 529C300 527 240 533 180 533C120 533 60 527 30 524L0 521Z" fill="#acc8ff"></path><path d="M0 601L30 601C60 601 120 601 180 601C240 601 300 601 360 601C420 601 480 601 540 601C600 601 660 601 720 601C780 601 840 601 870 601L900 601L900 587L870 580C840 573 780 559 720 555C660 551 600 557 540 564C480 571 420 579 360 582C300 585 240 583 180 578C120 573 60 565 30 561L0 557Z" fill="#a5c3ff"></path></svg>