<?xml version="1.0" standalone="no"?>
<svg xmlns:xlink="http://www.w3.org/1999/xlink" id="wave" style="transform:rotate(0deg); transition: 0.3s" viewBox="0 0 1440 300" version="1.1" xmlns="http://www.w3.org/2000/svg"><defs><linearGradient id="sw-gradient-0" x1="0" x2="0" y1="1" y2="0"><stop stop-color="rgba(235.828, 205.962, 255, 1)" offset="0%"/><stop stop-color="rgba(254.298, 253.47, 255, 1)" offset="100%"/></linearGradient></defs><path style="transform:translate(0, 0px); opacity:1" fill="url(#sw-gradient-0)" d="M0,150L60,160C120,170,240,190,360,190C480,190,600,170,720,175C840,180,960,210,1080,215C1200,220,1320,200,1440,195C1560,190,1680,200,1800,200C1920,200,2040,190,2160,175C2280,160,2400,140,2520,155C2640,170,2760,220,2880,200C3000,180,3120,90,3240,45C3360,0,3480,0,3600,30C3720,60,3840,120,3960,155C4080,190,4200,200,4320,190C4440,180,4560,150,4680,115C4800,80,4920,40,5040,55C5160,70,5280,140,5400,150C5520,160,5640,110,5760,80C5880,50,6000,40,6120,35C6240,30,6360,30,6480,65C6600,100,6720,170,6840,205C6960,240,7080,240,7200,240C7320,240,7440,240,7560,240C7680,240,7800,240,7920,205C8040,170,8160,100,8280,65C8400,30,8520,30,8580,30L8640,30L8640,300L8580,300C8520,300,8400,300,8280,300C8160,300,8040,300,7920,300C7800,300,7680,300,7560,300C7440,300,7320,300,7200,300C7080,300,6960,300,6840,300C6720,300,6600,300,6480,300C6360,300,6240,300,6120,300C6000,300,5880,300,5760,300C5640,300,5520,300,5400,300C5280,300,5160,300,5040,300C4920,300,4800,300,4680,300C4560,300,4440,300,4320,300C4200,300,4080,300,3960,300C3840,300,3720,300,3600,300C3480,300,3360,300,3240,300C3120,300,3000,300,2880,300C2760,300,2640,300,2520,300C2400,300,2280,300,2160,300C2040,300,1920,300,1800,300C1680,300,1560,300,1440,300C1320,300,1200,300,1080,300C960,300,840,300,720,300C600,300,480,300,360,300C240,300,120,300,60,300L0,300Z"/><defs><linearGradient id="sw-gradient-1" x1="0" x2="0" y1="1" y2="0"><stop stop-color="rgba(255, 255, 255, 1)" offset="0%"/><stop stop-color="rgba(224.259, 159.892, 255, 1)" offset="100%"/></linearGradient></defs><path style="transform:translate(0, 50px); opacity:0.9" fill="url(#sw-gradient-1)" d="M0,210L60,190C120,170,240,130,360,115C480,100,600,110,720,130C840,150,960,180,1080,195C1200,210,1320,210,1440,220C1560,230,1680,250,1800,225C1920,200,2040,130,2160,125C2280,120,2400,180,2520,185C2640,190,2760,140,2880,125C3000,110,3120,130,3240,125C3360,120,3480,90,3600,75C3720,60,3840,60,3960,70C4080,80,4200,100,4320,120C4440,140,4560,160,4680,150C4800,140,4920,100,5040,85C5160,70,5280,80,5400,75C5520,70,5640,50,5760,45C5880,40,6000,50,6120,65C6240,80,6360,100,6480,130C6600,160,6720,200,6840,190C6960,180,7080,120,7200,110C7320,100,7440,140,7560,145C7680,150,7800,120,7920,95C8040,70,8160,50,8280,50C8400,50,8520,70,8580,80L8640,90L8640,300L8580,300C8520,300,8400,300,8280,300C8160,300,8040,300,7920,300C7800,300,7680,300,7560,300C7440,300,7320,300,7200,300C7080,300,6960,300,6840,300C6720,300,6600,300,6480,300C6360,300,6240,300,6120,300C6000,300,5880,300,5760,300C5640,300,5520,300,5400,300C5280,300,5160,300,5040,300C4920,300,4800,300,4680,300C4560,300,4440,300,4320,300C4200,300,4080,300,3960,300C3840,300,3720,300,3600,300C3480,300,3360,300,3240,300C3120,300,3000,300,2880,300C2760,300,2640,300,2520,300C2400,300,2280,300,2160,300C2040,300,1920,300,1800,300C1680,300,1560,300,1440,300C1320,300,1200,300,1080,300C960,300,840,300,720,300C600,300,480,300,360,300C240,300,120,300,60,300L0,300Z"/></svg>