<svg id="visual" viewBox="0 0 900 600" width="900" height="600" xmlns="http://www.w3.org/2000/svg" xmlns:xlink="http://www.w3.org/1999/xlink" version="1.1"><rect x="0" y="0" width="900" height="600" fill="#fcfcfc"></rect><g transform="translate(913.8990456679983 610.5796800915747)"><path d="M126 -203.3C162 -173 188.8 -135.7 206 -95C223.2 -54.2 230.9 -10 230.9 37.6C230.8 85.1 223.1 135.9 194 166.4C164.9 197 114.4 207.4 66.5 217.2C18.6 227.1 -26.8 236.4 -72.9 230.8C-119.1 225.3 -166.1 205 -196.2 170.1C-226.2 135.2 -239.3 85.8 -249.3 34.2C-259.2 -17.3 -266.1 -71 -244.3 -108.6C-222.5 -146.2 -172.1 -167.7 -126.6 -193.6C-81.1 -219.5 -40.5 -249.8 2.3 -253.3C45.1 -256.8 90.1 -233.5 126 -203.3" fill="#eccdf6"></path></g></svg>