<svg id="visual" viewBox="0 0 900 600" width="900" height="600" xmlns="http://www.w3.org/2000/svg" xmlns:xlink="http://www.w3.org/1999/xlink" version="1.1"><rect x="0" y="0" width="900" height="600" fill="#ffffff"></rect><defs><linearGradient id="grad1_0" x1="33.3%" y1="0%" x2="100%" y2="100%"><stop offset="20%" stop-color="#ffffff" stop-opacity="1"></stop><stop offset="80%" stop-color="#ffffff" stop-opacity="1"></stop></linearGradient></defs><defs><linearGradient id="grad2_0" x1="0%" y1="0%" x2="66.7%" y2="100%"><stop offset="20%" stop-color="#ffffff" stop-opacity="1"></stop><stop offset="80%" stop-color="#ffffff" stop-opacity="1"></stop></linearGradient></defs><g transform="translate(900, 0)"><path d="M0 270.4C-56.1 268.4 -112.1 266.4 -135.2 234.2C-158.3 202 -148.4 139.6 -165.4 95.5C-182.4 51.4 -226.4 25.7 -270.4 0L0 0Z" fill="#eccdf6"></path></g><g transform="translate(0, 600)"><path d="M0 -270.4C43.6 -257.4 87.2 -244.3 129 -223.4C170.8 -202.5 210.9 -173.8 234.2 -135.2C257.5 -96.7 263.9 -48.3 270.4 0L0 0Z" fill="#eccdf6"></path></g></svg>